<svg xmlns="http://www.w3.org/2000/svg" height="548" preserveAspectRatio="none" style="width:255px;height:548px;background:#fff" width="255"><circle cx="114.155" cy="20" fill="#222" style="stroke:#222;stroke-width:1" r="10"/><rect fill="#F1F1F1" height="33.969" rx="12.5" ry="12.5" style="stroke:#181818;stroke-width:.5" width="125.088" x="51.611" y="50"/><text font-family="sans-serif" font-size="12" textLength="105.088" x="61.611" y="71.139">Publisher created</text><rect fill="#F1F1F1" height="33.969" rx="12.5" ry="12.5" style="stroke:#181818;stroke-width:.5" width="124.32" x="51.995" y="103.969"/><text font-family="sans-serif" font-size="12" textLength="104.32" x="61.995" y="125.107">Listeners created</text><rect fill="#F1F1F1" height="33.969" rx="12.5" ry="12.5" style="stroke:#181818;stroke-width:.5" width="172.074" x="28.118" y="157.938"/><text font-family="sans-serif" font-size="12" textLength="152.074" x="38.118" y="179.076">Publisher adds Listener A</text><rect fill="#F1F1F1" height="33.969" rx="12.5" ry="12.5" style="stroke:#181818;stroke-width:.5" width="172.098" x="28.106" y="211.906"/><text font-family="sans-serif" font-size="12" textLength="152.098" x="38.106" y="233.045">Publisher adds Listener B</text><rect fill="#F1F1F1" height="33.969" rx="12.5" ry="12.5" style="stroke:#181818;stroke-width:.5" width="122.381" x="52.965" y="265.875"/><text font-family="sans-serif" font-size="12" textLength="102.381" x="62.965" y="287.014">Message created</text><rect fill="#F1F1F1" height="33.969" rx="12.5" ry="12.5" style="stroke:#181818;stroke-width:.5" width="199.478" x="14.416" y="319.844"/><text font-family="sans-serif" font-size="12" textLength="179.478" x="24.416" y="340.982">Publisher notifies all Listeners</text><rect fill="#F1F1F1" height="33.969" rx="12.5" ry="12.5" style="stroke:#181818;stroke-width:.5" width="206.31" x="11" y="417.813"/><text font-family="sans-serif" font-size="12" textLength="186.31" x="21" y="438.951">Listener updates with Message</text><path fill="#F1F1F1" style="stroke:#181818;stroke-width:.5" d="m114.155 373.813 12 12-12 12-12-12 12-12zM55.444 471.781h117.423l12 12-12 12H55.444l-12-12 12-12z"/><text font-family="sans-serif" font-size="11" textLength="117.423" x="55.444" y="487.589">all Listeners notified?</text><circle cx="114.155" cy="526.781" fill="none" style="stroke:#222;stroke-width:1" r="11"/><circle cx="114.155" cy="526.781" fill="#222" style="stroke:#222;stroke-width:1" r="6"/><path style="stroke:#181818;stroke-width:1" d="M114.155 30v20"/><path fill="#181818" style="stroke:#181818;stroke-width:1" d="m110.155 40 4 10 4-10-4 4z"/><path style="stroke:#181818;stroke-width:1" d="M114.155 83.969v20"/><path fill="#181818" style="stroke:#181818;stroke-width:1" d="m110.155 93.969 4 10 4-10-4 4z"/><path style="stroke:#181818;stroke-width:1" d="M114.155 137.938v20"/><path fill="#181818" style="stroke:#181818;stroke-width:1" d="m110.155 147.938 4 10 4-10-4 4z"/><path style="stroke:#181818;stroke-width:1" d="M114.155 191.906v20"/><path fill="#181818" style="stroke:#181818;stroke-width:1" d="m110.155 201.906 4 10 4-10-4 4z"/><path style="stroke:#181818;stroke-width:1" d="M114.155 245.875v20"/><path fill="#181818" style="stroke:#181818;stroke-width:1" d="m110.155 255.875 4 10 4-10-4 4z"/><path style="stroke:#181818;stroke-width:1" d="M114.155 299.844v20"/><path fill="#181818" style="stroke:#181818;stroke-width:1" d="m110.155 309.844 4 10 4-10-4 4z"/><path style="stroke:#181818;stroke-width:1" d="M114.155 397.813v20"/><path fill="#181818" style="stroke:#181818;stroke-width:1" d="m110.155 407.813 4 10 4-10-4 4z"/><path style="stroke:#181818;stroke-width:1" d="M184.867 483.781h44.443"/><path fill="#181818" style="stroke:#181818;stroke-width:1" d="m225.311 444.797 4-10 4 10-4-4z"/><path style="stroke:#181818;stroke-width:1" d="M229.31 385.813v97.968M229.31 385.813H126.155"/><path fill="#181818" style="stroke:#181818;stroke-width:1" d="m136.155 381.813-10 4 10 4-4-4z"/><path style="stroke:#181818;stroke-width:1" d="M114.155 451.781v20"/><path fill="#181818" style="stroke:#181818;stroke-width:1" d="m110.155 461.781 4 10 4-10-4 4z"/><path style="stroke:#181818;stroke-width:1" d="M114.155 353.813v20"/><path fill="#181818" style="stroke:#181818;stroke-width:1" d="m110.155 363.813 4 10 4-10-4 4z"/><path style="stroke:#181818;stroke-width:1" d="M114.155 495.781v20"/><path fill="#181818" style="stroke:#181818;stroke-width:1" d="m110.155 505.781 4 10 4-10-4 4z"/></svg>